# xmcd
#
# Track frame offsets: 
#        150
#        9942
#        29909
#        52013
#        75648
#        94912
#        115550
#        129668
#
# Disc length: 1933 seconds
#
# Revision: 2
# Processed by: cddbd v1.5.2PL0 Copyright (c) Steve Scherf et al.
# Submitted via: ExactAudioCopyFreeDBPlugin 1.0
#
DISCID=61078b08
DTITLE=Worrawech Danuwong - Blue
DYEAR=2009
DGENRE=Thai
TTITLE0=Interlude
TTITLE1=ใช้หัวใจ
TTITLE2=ขอร้อง
TTITLE3=แค่เธอ
TTITLE4=บรรยากาศเป็นใจ
TTITLE5=ชีวิตหลังความเจ็บ
TTITLE6=วันละ KISS
TTITLE7=วันที่สวยงาม Bonus Track
EXTD=
EXTT0=
EXTT1=
EXTT2=
EXTT3=
EXTT4=
EXTT5=
EXTT6=
EXTT7=
PLAYORDER=
